<?xml version="1.0" encoding="UTF-8"?>
<svg width="400" height="300" viewBox="0 0 400 300" xmlns="http://www.w3.org/2000/svg">
  <defs>
    <linearGradient id="bg" x1="0%" y1="0%" x2="100%" y2="100%">
      <stop offset="0%" style="stop-color:#e8f5e9"/>
      <stop offset="100%" style="stop-color:#c8e6c9"/>
    </linearGradient>
  </defs>
  
  <!-- Background -->
  <rect width="400" height="300" fill="url(#bg)"/>
  
  <!-- Chart elements -->
  <g transform="translate(50, 250)">
    <!-- X axis -->
    <line x1="0" y1="0" x2="300" y2="0" stroke="#2e7d32" stroke-width="2"/>
    
    <!-- Y axis -->
    <line x1="0" y1="0" x2="0" y2="-200" stroke="#2e7d32" stroke-width="2"/>
    
    <!-- Bar chart -->
    <rect x="25" y="-40" width="20" height="40" fill="#4caf50"/>
    <rect x="55" y="-60" width="20" height="60" fill="#4caf50"/>
    <rect x="85" y="-80" width="20" height="80" fill="#4caf50"/>
    <rect x="115" y="-100" width="20" height="100" fill="#4caf50"/>
    <rect x="145" y="-120" width="20" height="120" fill="#4caf50"/>
    <rect x="175" y="-140" width="20" height="140" fill="#4caf50"/>
    <rect x="205" y="-160" width="20" height="160" fill="#4caf50"/>
    <rect x="235" y="-180" width="20" height="180" fill="#4caf50"/>
    
    <!-- Line chart -->
    <path d="M25,-30 L55,-50 L85,-70 L115,-90 L145,-110 L175,-130 L205,-150 L235,-170" 
          fill="none" stroke="#1b5e20" stroke-width="3"/>
    
    <!-- Data points -->
    <circle cx="25" cy="-30" r="4" fill="#1b5e20"/>
    <circle cx="55" cy="-50" r="4" fill="#1b5e20"/>
    <circle cx="85" cy="-70" r="4" fill="#1b5e20"/>
    <circle cx="115" cy="-90" r="4" fill="#1b5e20"/>
    <circle cx="145" cy="-110" r="4" fill="#1b5e20"/>
    <circle cx="175" cy="-130" r="4" fill="#1b5e20"/>
    <circle cx="205" cy="-150" r="4" fill="#1b5e20"/>
    <circle cx="235" cy="-170" r="4" fill="#1b5e20"/>
  </g>
</svg> 